<?xml version="1.0" encoding="UTF-8"?>
<svg id="Layer_1" data-name="Layer 1" xmlns="http://www.w3.org/2000/svg" viewBox="0 0 85.57 29.95">
  <defs>
    <style>
      .cls-1 {
        fill: #00babb;
      }

      .cls-2 {
        fill: #d1d3d4;
      }
    </style>
  </defs>
  <path class="cls-1" d="M14.19,27.32c-.1,0-.2-.08-.21-.18-.02-.12.06-.23.18-.24l.75-.12-.97-.11c-.1-.01-.18-.1-.19-.2,0-.1.06-.2.17-.22l1.89-.43h-2.1c-.11,0-.2-.08-.21-.19-.01-.11.05-.21.16-.23l2.5-.65-2.79.25c-.11,0-.21-.07-.23-.18-.02-.11.05-.22.16-.24l4.32-1.02h-4.69c-.11,0-.2-.09-.21-.2,0-.11.07-.21.18-.23l4.34-.71-5.1-.14c-.11,0-.21-.1-.21-.21,0-.11.08-.21.2-.22l5.29-.41-5.69-.44c-.11,0-.2-.11-.2-.22,0-.11.1-.21.21-.21l6.82-.1-6.31-.88c-.11-.02-.19-.11-.18-.22,0-.11.1-.2.21-.2l6.33-.21-6.34-.76c-.11-.01-.19-.11-.19-.22,0-.11.09-.2.2-.21l5.71-.35-6.39-.58c-.11-.01-.2-.1-.19-.22,0-.11.09-.2.2-.21l6.59-.49-7.52-.27c-.11,0-.2-.09-.21-.2,0-.11.07-.21.18-.22l8.38-1.17-14.21.49c-.11,0-.21-.08-.22-.2,0-.11.07-.22.19-.23l16.04-1.89-17.95-.06c-.12,0-.21-.09-.21-.21s.08-.21.2-.22l15.15-1.11-15.15-.84c-.11,0-.2-.1-.2-.21,0-.11.08-.21.2-.22l13.58-1.12-13.21-.63c-.11,0-.2-.1-.2-.21,0-.11.08-.21.19-.22l12.89-1.35-10.45-.5c-.11,0-.2-.09-.2-.2,0-.11.07-.21.18-.22l4.87-.83-2.12-.29c-.12-.02-.2-.12-.18-.24s.12-.2.24-.18l3.5.48c.1.01.18.1.19.21s-.07.2-.18.21l-4.3.74,11.3.54c.11,0,.2.1.2.21,0,.11-.08.21-.19.22l-12.89,1.35,13.7.65c.11,0,.2.1.2.21,0,.11-.08.21-.2.22l-13.77,1.13,15.36.85c.11,0,.2.1.2.21s-.09.21-.2.22l-12.87.94,15.88.05c.11,0,.21.09.21.2,0,.11-.08.21-.19.23l-14.46,1.71,13.18-.45c.11,0,.21.08.22.2,0,.11-.07.22-.18.23l-10.02,1.4,8.95.32c.11,0,.2.1.21.21,0,.11-.08.21-.2.22l-7.88.59,6.61.6c.11.01.2.1.19.22,0,.11-.09.2-.2.21l-6.15.38,6.78.82c.11.01.19.11.19.22,0,.11-.1.2-.21.2l-6.65.22,6.59.92c.11.02.19.11.18.23,0,.11-.1.2-.21.2l-4.97.08,3.84.3c.11,0,.2.1.2.21s-.09.2-.2.21l-3.99.31,3.27.09c.11,0,.2.09.21.2,0,.11-.07.21-.18.23l-3.95.64h3.89c.11,0,.2.08.21.19.01.11-.06.21-.16.23l-3.15.74,2.36-.21c.11,0,.21.07.23.18.02.11-.05.22-.16.24l-3.41.89h2.34c.11,0,.2.08.21.19.01.11-.06.21-.17.23l-2.53.57,1.3.15c.11.01.19.1.19.21,0,.11-.08.2-.18.22l-2.32.36s-.02,0-.03,0Z"/>
  <rect class="cls-2" x="29.09" y="2.54" width=".21" height="20.37"/>
  <g>
    <path class="cls-2" d="M33.93,8.48l2.27-5.78h.62l2.21,5.78h-.56l-.67-1.81h-2.63l-.68,1.81h-.56ZM35.36,6.2h2.26l-1.13-3.03-1.13,3.03Z"/>
    <path class="cls-2" d="M41.01,3.44h-.02v5.04h-.55V2.7h.62l3.34,5.05h.02V2.7h.55v5.78h-.63l-3.32-5.04Z"/>
    <path class="cls-2" d="M47.5,3.44h-.02v5.04h-.55V2.7h.62l3.34,5.05h.02V2.7h.55v5.78h-.63l-3.32-5.04Z"/>
    <path class="cls-2" d="M53.26,2.7h.55v3.44c0,.72.13,1.23.4,1.55.27.32.7.47,1.29.47.31,0,.57-.04.79-.12.22-.08.39-.21.53-.38.13-.17.23-.38.29-.63.06-.25.09-.55.09-.89v-3.44h.55v3.6c0,.75-.19,1.33-.56,1.73-.37.4-.93.6-1.68.6s-1.32-.2-1.68-.61c-.37-.41-.55-.98-.55-1.72v-3.6Z"/>
    <path class="cls-2" d="M58.41,8.48l2.27-5.78h.62l2.21,5.78h-.56l-.67-1.81h-2.63l-.68,1.81h-.56ZM59.83,6.2h2.26l-1.13-3.03-1.13,3.03Z"/>
    <path class="cls-2" d="M64.88,8.48V2.7h.55v5.31h3.1v.47h-3.64Z"/>
  </g>
  <g>
    <path class="cls-2" d="M37.9,15.42h-3.53v-5.46h1.14v4.51h2.39v.95Z"/>
    <path class="cls-2" d="M42.85,15.42h-3.62v-5.46h3.62v.94h-2.47v1.32h2.33v.88h-2.33v1.38h2.47v.95Z"/>
    <path class="cls-2" d="M47.59,14.1h-1.92l-.42,1.32h-1.17l1.89-5.46h1.34l1.9,5.46h-1.21l-.42-1.32ZM45.92,13.24h1.43l-.7-2.23h-.03l-.7,2.23Z"/>
    <path class="cls-2" d="M52.57,9.96c1.64,0,2.6.98,2.6,2.71s-.96,2.75-2.6,2.75h-2.08v-5.46h2.08ZM51.63,14.48h.81c1.02,0,1.57-.62,1.57-1.8s-.57-1.77-1.57-1.77h-.81v3.57Z"/>
    <path class="cls-2" d="M60.29,15.42h-3.62v-5.46h3.62v.94h-2.47v1.32h2.33v.88h-2.33v1.38h2.47v.95Z"/>
    <path class="cls-2" d="M63.03,15.42h-1.14v-5.46h2.23c1.26,0,1.97.66,1.97,1.74,0,.7-.36,1.3-.99,1.55l1.15,2.17h-1.29l-1.02-2h-.91v2ZM63.03,12.6h.98c.57,0,.91-.33.91-.87s-.36-.87-.92-.87h-.97v1.74Z"/>
    <path class="cls-2" d="M68.41,13.86c.07.46.53.73,1.15.73s1.02-.3,1.02-.7c0-.36-.26-.56-.94-.7l-.57-.11c-1.09-.22-1.62-.74-1.62-1.55,0-1,.87-1.66,2.08-1.66,1.27,0,2.08.67,2.1,1.67h-1.08c-.04-.47-.44-.74-1.02-.74s-.94.26-.94.67c0,.34.26.54.91.67l.58.12c1.15.23,1.66.7,1.66,1.52,0,1.07-.84,1.74-2.2,1.74s-2.17-.62-2.2-1.65h1.08Z"/>
  </g>
  <g>
    <path class="cls-2" d="M36.83,22.62c-1.63,0-2.63-1.06-2.63-2.84s1-2.81,2.6-2.81c1.27,0,2.23.75,2.4,1.86h-1.15c-.17-.57-.63-.91-1.25-.91-.9,0-1.44.68-1.44,1.85s.57,1.91,1.48,1.91c.74,0,1.26-.46,1.29-1.13v-.09s-1.18,0-1.18,0v-.83h2.3v.62c0,1.49-.9,2.38-2.42,2.38Z"/>
    <path class="cls-2" d="M44.05,21.21h-1.92l-.42,1.32h-1.17l1.89-5.46h1.34l1.9,5.46h-1.21l-.42-1.32ZM42.38,20.35h1.43l-.7-2.23h-.03l-.7,2.23Z"/>
    <path class="cls-2" d="M47.65,22.53v-4.52h-1.58v-.94h4.3v.94h-1.58v4.52h-1.14Z"/>
    <path class="cls-2" d="M55.05,22.53v-2.3h-2.46v2.3h-1.14v-5.46h1.14v2.22h2.46v-2.22h1.14v5.46h-1.14Z"/>
    <path class="cls-2" d="M61.61,22.53h-3.62v-5.46h3.62v.94h-2.47v1.32h2.33v.88h-2.33v1.38h2.47v.95Z"/>
    <path class="cls-2" d="M64.36,22.53h-1.14v-5.46h2.23c1.26,0,1.97.66,1.97,1.74,0,.7-.36,1.3-.99,1.55l1.15,2.17h-1.29l-1.02-2h-.91v2ZM64.36,19.71h.98c.57,0,.91-.33.91-.87s-.36-.87-.92-.87h-.97v1.74Z"/>
    <path class="cls-2" d="M68.57,22.53v-5.46h1.14v5.46h-1.14Z"/>
    <path class="cls-2" d="M71.52,22.53v-5.46h.95l2.55,3.55h.03v-3.55h1.09v5.46h-.95l-2.55-3.57h-.03v3.57h-1.09Z"/>
    <path class="cls-2" d="M80.36,22.62c-1.63,0-2.63-1.06-2.63-2.84s1-2.81,2.6-2.81c1.27,0,2.23.75,2.4,1.86h-1.15c-.17-.57-.63-.91-1.25-.91-.9,0-1.44.68-1.44,1.85s.57,1.91,1.48,1.91c.74,0,1.26-.46,1.29-1.13v-.09s-1.18,0-1.18,0v-.83h2.3v.62c0,1.49-.9,2.38-2.42,2.38Z"/>
  </g>
</svg>