<?xml version="1.0" encoding="UTF-8"?>
<svg id="Layer_1" data-name="Layer 1" xmlns="http://www.w3.org/2000/svg" viewBox="0 0 156.17 56.91">
  <defs>
    <style>
      .cls-1 {
        fill: #d1d3d4;
      }
    </style>
  </defs>
  <polygon class="cls-1" points="2.6 18.88 2.6 35.94 12.02 35.94 12.02 32.9 5.78 32.9 5.78 18.88 2.6 18.88"/>
  <g>
    <path class="cls-1" d="M21.59,16.89h2.95l-3.51,3.97h-2.13l2.69-3.97ZM16.03,27.57h7.76c-.47-1.85-1.87-2.81-3.83-2.81s-3.37,1.12-3.93,2.81M12.85,29.14c0-4,3.11-7.15,7.11-7.15s7.04,2.99,7.04,7.04v1.19h-11.13c.44,1.94,1.96,3.23,4.21,3.23,1.78,0,3.13-.93,3.79-2.41l2.59,1.5c-1.19,2.22-3.3,3.69-6.38,3.69-4.3,0-7.22-3.13-7.22-7.08"/>
    <path class="cls-1" d="M42.51,27.41c0-3.11-2.48-5.64-5.59-5.64s-5.56,2.53-5.56,5.64,2.46,5.64,5.56,5.64,5.59-2.53,5.59-5.64M28.2,27.41c0-4.84,3.86-8.77,8.72-8.77s8.74,3.93,8.74,8.77-3.88,8.77-8.74,8.77-8.72-3.9-8.72-8.77"/>
  </g>
  <path class="cls-1" d="M56.72,29.87h4.49l-2.24-6.48-2.24,6.48ZM57.35,18.88h3.2l6.08,17.07h-3.32l-1.05-3.04h-6.62l-1.05,3.04h-3.32l6.08-17.07Z"/>
  <polygon class="cls-1" points="67.92 18.88 77.58 18.88 77.58 21.92 71.1 21.92 71.1 25.84 77.58 25.84 77.58 28.88 71.1 28.88 71.1 35.94 67.92 35.94 67.92 18.88"/>
  <path class="cls-1" d="M84.78,27.81c2.62,0,3.48-1.43,3.48-3.11s-1.05-2.85-3.48-2.85h-2.01v5.96h2.01ZM79.59,35.94v-17.07h5.47c4.02,0,6.38,2.41,6.38,5.94,0,2.06-1,3.98-2.88,4.98l3.41,6.15h-3.62l-2.74-5.21h-2.85v5.21h-3.18Z"/>
  <rect class="cls-1" x="93.73" y="18.88" width="3.18" height="17.07"/>
  <path class="cls-1" d="M98.89,27.41c0-5.1,3.83-8.77,8.77-8.77,3.2,0,5.99,1.68,7.48,4.23l-2.78,1.78c-1.01-1.78-2.48-2.88-4.7-2.88-3.25,0-5.61,2.46-5.61,5.64s2.36,5.59,5.54,5.59c2.36,0,4-1.33,4.91-3.2l2.9,1.52c-1.5,2.9-4.37,4.86-7.74,4.86-5.26,0-8.77-3.9-8.77-8.77"/>
  <path class="cls-1" d="M120.98,29.87h4.49l-2.24-6.48-2.24,6.48ZM121.62,18.88h3.2l6.08,17.07h-3.32l-1.05-3.04h-6.62l-1.05,3.04h-3.32l6.08-17.07Z"/>
  <rect class="cls-1" x="2.61" y="40.21" width="1" height="12.8"/>
  <polygon class="cls-1" points="16.01 40.21 16.01 51.43 7.77 40.21 6.65 40.21 6.65 53.01 7.67 53.01 7.67 41.74 15.94 53.01 17.03 53.01 17.03 40.21 16.01 40.21"/>
  <path class="cls-1" d="M19.07,51.08l.84-.65c.82,1.21,1.96,1.82,3.42,1.82,1.74,0,3.07-1.07,3.07-2.7,0-1.75-1.58-2.26-3.26-2.82-1.75-.56-3.59-1.26-3.59-3.45,0-1.88,1.67-3.24,3.8-3.24,1.74,0,2.93.68,3.77,1.75l-.79.61c-.68-.97-1.63-1.47-2.98-1.47-1.56,0-2.77.96-2.77,2.35,0,1.66,1.54,2.1,3.19,2.66,1.79.61,3.65,1.32,3.65,3.61,0,2-1.68,3.63-4.08,3.63-1.89,0-3.3-.82-4.26-2.1"/>
  <polygon class="cls-1" points="28.81 40.21 28.81 41.14 32.81 41.14 32.81 53.01 33.82 53.01 33.82 41.14 37.82 41.14 37.82 40.21 28.81 40.21"/>
  <rect class="cls-1" x="39.86" y="40.21" width="1" height="12.8"/>
  <polygon class="cls-1" points="42.89 40.21 42.89 41.14 46.88 41.14 46.88 53.01 47.9 53.01 47.9 41.14 51.89 41.14 51.89 40.21 42.89 40.21"/>
  <path class="cls-1" d="M53.84,48.84v-8.62h1.02v8.68c0,1.84,1.44,3.33,3.33,3.33s3.35-1.49,3.35-3.35v-8.66h1.02v8.62c0,2.45-1.89,4.35-4.36,4.35s-4.35-1.89-4.35-4.35"/>
  <polygon class="cls-1" points="64.5 40.21 64.5 41.14 68.5 41.14 68.5 53.01 69.51 53.01 69.51 41.14 73.51 41.14 73.51 40.21 64.5 40.21"/>
  <polygon class="cls-1" points="75.47 40.21 75.47 53.01 83.31 53.01 83.31 52.04 76.49 52.04 76.49 47.07 83.31 47.07 83.31 46.12 76.49 46.12 76.49 41.18 83.31 41.18 83.31 40.21 75.47 40.21"/>
  <g>
    <path class="cls-1" d="M132.99,53.01c8.14-13.32,8.68-30.38-.05-44.14-1.6-2.52-3.44-4.81-5.46-6.86,1.38-.15,2.77-.22,4.15-.24.13,0,.27,0,.41,0h0c1.05,1.28,2.03,2.63,2.94,4.06,9.41,14.82,8.04,33.49-1.99,47.17"/>
    <path class="cls-1" d="M132.99,53.01c9.91-12.06,12.83-28.88,6.1-43.71-1.21-2.67-2.68-5.16-4.37-7.43,1.47.09,2.94.26,4.39.51.07.01.15.02.22.04.8,1.33,1.53,2.72,2.19,4.17,7.25,15.99,3.3,34.28-8.53,46.43"/>
    <path class="cls-1" d="M147.9,8.21c4.96,16.84-1.5,34.41-14.91,44.79,11.49-10.56,16.72-26.81,12.12-42.44-.79-2.68-1.83-5.23-3.1-7.61,1.46.35,2.9.78,4.32,1.28.07.03.14.05.21.08.51,1.26.97,2.56,1.36,3.9"/>
    <path class="cls-1" d="M153.38,7.52c.24,1.05.44,2.12.6,3.21,2.57,17.37-6.27,33.87-21,42.28,12.85-8.86,20.29-24.22,17.91-40.34-.37-2.53-.97-4.98-1.78-7.32,1.4.61,2.76,1.3,4.09,2.07.06.03.12.07.18.1"/>
  </g>
</svg>