<?xml version="1.0" encoding="UTF-8"?>
<svg id="Layer_1" data-name="Layer 1" xmlns="http://www.w3.org/2000/svg" viewBox="0 0 64.55 28.61">
  <defs>
    <style>
      .cls-1 {
        fill: #00babb;
      }

      .cls-2 {
        fill: #d1d3d4;
      }

      .cls-3 {
        fill: #f89521;
      }

      .cls-4 {
        fill: #9a1b30;
      }
    </style>
  </defs>
  <g>
    <rect class="cls-4" x=".95" y="6.47" width="3.09" height="15.67"/>
    <polygon class="cls-3" points="7.85 5.44 7.85 23.17 4.76 25.08 4.76 3.53 7.85 5.44"/>
    <polygon class="cls-1" points="14.97 22.14 8.57 28.01 8.57 .59 14.97 6.47 14.97 22.14"/>
  </g>
  <g>
    <path class="cls-2" d="M19.26,6.8h1.36v5.29h2.65v1.21h-4.02v-6.5Z"/>
    <path class="cls-2" d="M26.12,8.33c1.47,0,2.36,1.09,2.36,2.55v.32h-3.47c.1.64.48,1.15,1.18,1.15.46,0,.81-.22,1.04-.6l1.14.37c-.35.87-1.29,1.32-2.2,1.32-1.45,0-2.47-1.1-2.47-2.56,0-1.37.96-2.54,2.41-2.54ZM27.17,10.34c-.08-.57-.43-1.02-1.04-1.02s-.98.46-1.09,1.02h2.13ZM25.26,7.78l1.04-1.31h1.43l-1.26,1.31h-1.21Z"/>
    <path class="cls-2" d="M29.07,10.06c0-1.92,1.39-3.44,3.38-3.44s3.36,1.45,3.36,3.42-1.39,3.44-3.38,3.44-3.36-1.46-3.36-3.42ZM32.44,12.23c1.22,0,1.96-1,1.96-2.18s-.71-2.18-1.96-2.18-1.96,1-1.96,2.18.72,2.18,1.96,2.18Z"/>
    <path class="cls-2" d="M40.83,6.8h1.45l2.59,6.5h-1.4l-.53-1.43h-2.81l-.53,1.43h-1.34l2.58-6.5ZM40.55,10.72h1.95l-.98-2.59-.97,2.59Z"/>
    <path class="cls-2" d="M45.63,8.47v-.27c0-1.04.73-1.81,1.81-1.81.33,0,.67.08.96.24l-.26.98c-.17-.08-.33-.14-.52-.14-.52,0-.71.33-.71.81v.19h1.28v1.03h-1.28v3.8h-1.28v-3.8h-.82v-1.03h.82Z"/>
    <path class="cls-2" d="M49.91,8.47l.05.73c.24-.51.66-.8,1.23-.8.08,0,.17,0,.26.02.08.02.16.04.23.06l-.14,1.26c-.14-.06-.27-.06-.42-.06-.78,0-1.1.52-1.1,1.24v2.37h-1.28v-4.83h1.18Z"/>
    <path class="cls-2" d="M52.1,7.16c0-.41.31-.73.73-.73s.73.3.73.73-.31.73-.73.73-.73-.32-.73-.73ZM52.19,8.47h1.28v4.83h-1.28v-4.83Z"/>
    <path class="cls-2" d="M56.67,8.33c1.01,0,1.88.58,2.13,1.58l-1.22.24c-.17-.4-.49-.67-.94-.67-.76,0-1.13.74-1.13,1.42s.37,1.38,1.13,1.38c.45,0,.82-.25.99-.67l1.22.24c-.27,1.02-1.19,1.58-2.21,1.58-1.41,0-2.42-1.1-2.42-2.52s1-2.59,2.46-2.59Z"/>
    <path class="cls-2" d="M59.31,11.93c0-1.08,1.02-1.55,1.99-1.55.4,0,.72.07,1.1.21v-.28c0-.54-.31-.92-.87-.92-.39,0-.76.19-.9.58l-1.14-.23c.21-.92,1.17-1.4,2.06-1.4,1.21,0,2.1.78,2.1,2.04v2.93h-1.14l-.04-.57c-.29.48-.88.7-1.43.7-.88,0-1.72-.55-1.72-1.51ZM61.34,12.45c.56,0,1.05-.38,1.05-.98v-.05c-.14-.05-.27-.1-.43-.14-.16-.03-.3-.05-.46-.05-.39,0-.93.14-.93.62,0,.41.41.59.77.59Z"/>
    <path class="cls-2" d="M19.26,15.24h2.09c1.32,0,2.58.57,2.58,2.09,0,.75-.45,1.45-1.12,1.8l1.47,2.61h-1.5l-1.16-2.25c-.12,0-.24,0-.38,0-.19,0-.41-.02-.64-.05v2.3h-1.34v-6.5ZM20.6,18.3c.23.04.48.05.71.05.64,0,1.23-.27,1.23-.99s-.59-.98-1.23-.98h-.71v1.91Z"/>
    <path class="cls-2" d="M26.96,16.77c1.47,0,2.36,1.09,2.36,2.55v.32h-3.47c.1.64.48,1.15,1.18,1.15.46,0,.81-.22,1.04-.6l1.14.37c-.35.87-1.29,1.32-2.2,1.32-1.45,0-2.47-1.1-2.47-2.56,0-1.37.96-2.54,2.41-2.54ZM25.87,18.78h2.13c-.08-.57-.43-1.02-1.04-1.02s-.98.46-1.09,1.02Z"/>
    <path class="cls-2" d="M30.78,16.9l1.08,3.48,1.1-3.48h1.35l-1.81,4.83h-1.31l-1.81-4.83h1.4Z"/>
    <path class="cls-2" d="M34.71,15.6c0-.41.31-.73.73-.73s.73.3.73.73-.31.73-.73.73-.73-.32-.73-.73ZM34.8,16.9h1.28v4.83h-1.28v-4.83Z"/>
    <path class="cls-2" d="M39.22,16.77c1.47,0,2.36,1.09,2.36,2.55v.32h-3.47c.1.64.48,1.15,1.18,1.15.46,0,.81-.22,1.04-.6l1.14.37c-.35.87-1.29,1.32-2.2,1.32-1.45,0-2.47-1.1-2.47-2.56,0-1.37.96-2.54,2.41-2.54ZM38.13,18.78h2.13c-.08-.57-.43-1.02-1.04-1.02s-.98.46-1.09,1.02Z"/>
    <path class="cls-2" d="M41.71,16.9h1.32l.91,3.27.98-3.27h1.11l.98,3.28.92-3.28h1.27l-1.6,4.83h-1.18l-.97-3.27-.97,3.27h-1.16l-1.6-4.83Z"/>
  </g>
</svg>