<?xml version="1.0" encoding="UTF-8"?>
<svg id="Layer_1" data-name="Layer 1" xmlns="http://www.w3.org/2000/svg" viewBox="0 0 135.63 98.84">
  <defs>
    <style>
      .cls-1 {
        fill: #f4dd93;
      }

      .cls-2 {
        fill: #d1d3d4;
      }

      .cls-3 {
        fill: #a6c9ac;
      }

      .cls-4 {
        fill: #ecc31c;
      }
    </style>
  </defs>
  <path class="cls-2" d="M12.02,74.94c5.37,0,9.29-2.78,9.29-9.25,0-12.8-15.26-7.33-15.26-16.49,0-4.51,3.6-5.69,6.97-5.69,4.05,0,5.65,1.73,6.43,1.73.59,0,1.05-.87,1.05-1.32,0-1.37-3.83-2.6-7.43-2.6-3.96,0-9.29,1.46-9.29,8.07,0,11.25,15.26,5.61,15.26,16.54,0,4.51-2.6,6.83-7.25,6.83-5.92,0-6.74-3.83-7.79-3.83-.45,0-1.05.69-1.05,1.27,0,1.46,3.23,4.74,9.07,4.74Z"/>
  <path class="cls-2" d="M34.11,74.94c4.05,0,6.56-1.82,6.56-2.78,0-.46-.5-1.09-1.05-1.09-.95,0-1.69,1.82-5.42,1.82-4.24,0-7.33-2.41-7.33-6.33v-1.91h10.57c1.96,0,3.87-.09,3.87-3.51,0-4.79-3.87-8.25-8.29-8.25s-8.38,3.73-8.38,8.2v5.42c0,5.06,3.92,8.43,9.48,8.43ZM26.87,60.9c0-3.23,2.69-6.01,6.15-6.01,3.65,0,6.11,3.14,6.11,6.24,0,1.37-.5,1.64-2.55,1.64h-9.71v-1.87h0Z"/>
  <path class="cls-2" d="M52.2,93.61c-4.01,0-5.37-2.05-6.24-2.05-.5,0-.91.64-.91,1.14,0,1.55,3.51,3.01,7.06,3.01,4.63,0,7.12-2.43,8.1-5.73h-2.22c-.68,2.1-2.26,3.63-5.79,3.63Z"/>
  <path class="cls-2" d="M60.72,54.07c0-.55-.45-.91-1.09-.91-.59,0-1.09.36-1.09.91v2.28c-1.01-1.77-3.1-3.46-6.11-3.46-4.47,0-8.2,3.73-8.2,8.34v5.24c0,4.42,3.78,8.43,8.11,8.43,2.73,0,5.15-1.59,6.15-3.46v6.28h2.24v-23.64ZM58.48,68.01c0,1.46-2.55,4.79-5.97,4.79-3.23,0-6.06-3.1-6.06-6.33v-5.24c0-3.15,2.78-6.24,6.11-6.24,2.96,0,5.92,2.32,5.92,6.24v6.79Z"/>
  <path class="cls-2" d="M70.6,74.94c3.01,0,5.28-1.69,6.83-3.46v2.19c0,.55.5,1,1.09,1,.64,0,1.09-.45,1.09-1v-12.03c0-4.51-2.05-8.75-7.88-8.75-2.83,0-5.88,1.09-5.88,2.09,0,.45.37,1.23,1,1.23s1.87-1.27,4.78-1.27c4.15,0,5.74,3.51,5.74,6.7v1.19h-2.46c-6.33,0-10.62,1.23-10.62,6.1,0,4.1,2.78,6.01,6.29,6.01ZM75.16,64.64h2.23v3.37c0,2.01-3.28,4.92-6.47,4.92-2.46,0-4.37-1.27-4.37-4.1,0-3.79,4.15-4.19,8.61-4.19Z"/>
  <path class="cls-2" d="M86,74.66c.64,0,1.14-.5,1.14-1v-32.94c0-.55-.5-.96-1.14-.96s-1.09.41-1.09.96v32.94c0,.5.45,1,1.09,1Z"/>
  <path class="cls-2" d="M3.16,79.24c0-.22.2-.33.4-.33h4.67c.22,0,.33.2.33.38,0,.22-.12.42-.33.42h-4.19v3.63h2.08c.2,0,.32.19.32.4,0,.17-.09.36-.32.36h-2.08v4.13c0,.22-.22.33-.43.33-.22,0-.43-.11-.43-.33v-8.98h0Z"/>
  <path class="cls-2" d="M11.72,84.77v3.43c0,.2-.17.34-.42.34-.22,0-.4-.14-.4-.34v-.58c-.46.53-1.11,1.01-1.99,1.01-1,0-1.79-.56-1.79-1.74,0-1.44,1.24-1.8,3.07-1.8h.67v-.32c0-.85-.42-1.79-1.56-1.79-.88,0-1.2.38-1.41.38-.22,0-.34-.26-.34-.46,0-.35.94-.67,1.78-.67,1.77,0,2.38,1.23,2.38,2.54ZM10.86,85.68h-.56c-1.21,0-2.33.12-2.33,1.14,0,.77.5,1.09,1.15,1.09.85,0,1.74-.79,1.74-1.38v-.85Z"/>
  <path class="cls-2" d="M16.98,84.66c0-.95-.69-1.64-1.5-1.64-.77,0-1.56.61-1.56,1.67v3.51c0,.17-.2.34-.43.34s-.42-.17-.42-.34v-5.58c0-.19.19-.32.42-.32.22,0,.41.13.41.32v.61c.29-.51.88-1,1.75-1s1.56.54,1.87,1.32c.46-.9,1.24-1.32,2-1.32,1.14,0,2.22.9,2.22,2.46v3.51c0,.17-.19.34-.43.34-.22,0-.42-.17-.42-.34v-3.51c0-1.11-.78-1.67-1.5-1.67-.77,0-1.54.63-1.54,1.62v3.58c0,.24-.22.33-.43.33-.2,0-.42-.09-.42-.33v-3.56h0Z"/>
  <path class="cls-2" d="M24.07,79.91c0,.29-.25.56-.57.56s-.59-.26-.59-.56.26-.54.59-.54c.32,0,.57.25.57.54ZM23.94,82.63v5.58c0,.17-.2.34-.43.34s-.42-.17-.42-.34v-5.58c0-.19.19-.32.42-.32s.43.13.43.32Z"/>
  <path class="cls-2" d="M26.3,78.8v9.4c0,.17-.19.34-.43.34s-.42-.17-.42-.34v-9.4c0-.19.19-.32.42-.32.25,0,.43.13.43.32Z"/>
  <path class="cls-2" d="M27.19,82.76s-.04-.08-.04-.12c0-.22.3-.41.53-.41.13,0,.26.05.3.19l1.8,4.85,1.7-4.85c.05-.13.17-.19.29-.19.21,0,.53.17.53.42,0,.03,0,.08-.03.11l-2.04,5.54c-.53,1.43-1.19,3.31-2.67,3.31-.22,0-.4-.09-.4-.38,0-.2.07-.4.26-.4.83,0,1.58-1.17,1.91-2.54l-2.15-5.53Z"/>
  <path class="cls-2" d="M35.62,79.24c0-.22.2-.33.4-.33h4.67c.22,0,.33.2.33.38,0,.22-.12.42-.33.42h-4.19v3.63h2.08c.2,0,.32.19.32.4,0,.17-.09.36-.32.36h-2.08v4.13c0,.22-.22.33-.43.33-.22,0-.43-.11-.43-.33v-8.98h0Z"/>
  <path class="cls-2" d="M45.03,84.69v1.44c0,1.3-1.17,2.51-2.52,2.51s-2.49-1.19-2.49-2.51v-1.44c0-1.32,1.12-2.46,2.49-2.46s2.52,1.11,2.52,2.46ZM44.17,84.69c0-.85-.74-1.67-1.66-1.67s-1.64.83-1.64,1.67v1.44c0,.88.72,1.72,1.64,1.72s1.66-.83,1.66-1.72v-1.44Z"/>
  <path class="cls-2" d="M46.11,86.16v-3.52c0-.16.19-.33.43-.33.22,0,.42.17.42.33v3.52c0,.86.72,1.69,1.65,1.69s1.65-.82,1.65-1.69v-3.53c0-.17.2-.32.43-.32s.42.14.42.32v3.53c0,1.32-1.15,2.48-2.51,2.48-1.38,0-2.5-1.17-2.5-2.48Z"/>
  <path class="cls-2" d="M53.31,88.2c0,.17-.2.34-.43.34-.25,0-.42-.17-.42-.34v-5.58c0-.19.17-.32.42-.32.21,0,.4.13.4.32v.61c.28-.51.88-1,1.77-1,1.27,0,2.35,1.11,2.35,2.46v3.51c0,.22-.22.34-.43.34-.2,0-.42-.12-.42-.34v-3.51c0-.85-.74-1.67-1.65-1.67-.78,0-1.57.62-1.57,1.67v3.51h0Z"/>
  <path class="cls-2" d="M63.45,78.8v9.4c0,.17-.17.34-.41.34-.22,0-.41-.17-.41-.34v-.58c-.29.54-.99,1.01-1.8,1.01-1.25,0-2.33-1.2-2.33-2.51v-1.44c0-1.36,1.07-2.46,2.36-2.46.87,0,1.46.49,1.74,1v-4.43c0-.19.2-.32.45-.32.23,0,.4.13.4.32ZM59.35,86.13c0,.87.75,1.72,1.64,1.72s1.61-.91,1.61-1.3v-1.85c0-1.06-.8-1.67-1.59-1.67-.91,0-1.65.83-1.65,1.67v1.43Z"/>
  <path class="cls-2" d="M69.01,84.77v3.43c0,.2-.17.34-.42.34-.22,0-.4-.14-.4-.34v-.58c-.46.53-1.11,1.01-1.99,1.01-1,0-1.79-.56-1.79-1.74,0-1.44,1.24-1.8,3.07-1.8h.67v-.32c0-.85-.42-1.79-1.56-1.79-.88,0-1.2.38-1.41.38-.22,0-.34-.26-.34-.46,0-.35.94-.67,1.78-.67,1.76,0,2.38,1.23,2.38,2.54ZM68.15,85.68h-.56c-1.21,0-2.33.12-2.33,1.14,0,.77.5,1.09,1.15,1.09.85,0,1.74-.79,1.74-1.38v-.85Z"/>
  <path class="cls-2" d="M71.18,86.61c0,.86.32,1.16,1.23,1.16h.37c.24,0,.4.19.4.38,0,.21-.16.4-.4.4h-.37c-1.36,0-2.08-.58-2.08-1.94v-6.95c0-.19.22-.32.42-.32.21,0,.43.13.43.32v2.65h1.7c.17,0,.3.17.3.36s-.13.36-.3.36h-1.7v3.58Z"/>
  <path class="cls-2" d="M75,79.91c0,.29-.25.56-.57.56s-.59-.26-.59-.56.27-.54.59-.54c.32,0,.57.25.57.54ZM74.86,82.63v5.58c0,.17-.2.34-.43.34s-.42-.17-.42-.34v-5.58c0-.19.19-.32.42-.32s.43.13.43.32Z"/>
  <path class="cls-2" d="M81.02,84.69v1.44c0,1.3-1.17,2.51-2.52,2.51s-2.49-1.19-2.49-2.51v-1.44c0-1.32,1.12-2.46,2.49-2.46s2.52,1.11,2.52,2.46ZM80.16,84.69c0-.85-.74-1.67-1.66-1.67s-1.64.83-1.64,1.67v1.44c0,.88.72,1.72,1.64,1.72s1.66-.83,1.66-1.72v-1.44Z"/>
  <path class="cls-2" d="M83.02,88.2c0,.17-.2.34-.43.34-.25,0-.42-.17-.42-.34v-5.58c0-.19.17-.32.42-.32.21,0,.4.13.4.32v.61c.28-.51.88-1,1.77-1,1.27,0,2.35,1.11,2.35,2.46v3.51c0,.22-.22.34-.43.34-.2,0-.42-.12-.42-.34v-3.51c0-.85-.74-1.67-1.65-1.67-.78,0-1.57.62-1.57,1.67v3.51h0Z"/>
  <path class="cls-1" d="M114.98,41.86l-.22-.48c5.34-2.47,11.91-1.18,12.19-1.12l-.11.52c-.07-.02-6.69-1.32-11.87,1.08Z"/>
  <path class="cls-1" d="M114.94,41.58l-.49-.19c2.93-7.77,9.69-14.48,9.76-14.55l.37.37c-.07.06-6.75,6.7-9.64,14.36Z"/>
  <path class="cls-1" d="M114.95,41.81l-.46-.25c4.3-7.84,16.84-11.57,16.97-11.6l.15.5c-.13.03-12.46,3.71-16.65,11.35Z"/>
  <path class="cls-1" d="M114.46,41.61c-13.5-18.5-33.16-15.3-44.9-13.38-1.19.19-2.29.37-3.28.51l-.07-.52c.99-.14,2.09-.32,3.28-.51,11.87-1.93,31.73-5.18,45.42,13.59l-.43.31Z"/>
  <path class="cls-1" d="M116.51,61.63c-3.24-13.09-2.07-18.98-2.02-19.23l.52.11c-.01.06-1.19,6.04,2.02,18.99l-.51.13Z"/>
  <path class="cls-1" d="M115.71,61.75c.13.58.72.95,1.3.82.58-.13.95-.72.82-1.3-.13-.58-.72-.95-1.3-.82-.58.13-.95.72-.82,1.3Z"/>
  <path class="cls-1" d="M114.41,41.59c-1.8-15.12,2.1-25.6,2.14-25.7l.49.19c-.04.1-3.89,10.47-2.11,25.45l-.52.06Z"/>
  <path class="cls-1" d="M114.77,42.1l-.16-.16c-2.76-2.79-13.26-11.47-32.58-5.87l-.15-.5c2.07-.6,7.58-1.98,13.93-1.75,7.84.29,14.24,2.84,19.01,7.59.96-.64,5.48-3.32,12.99-2.93l-.03.53c-8.12-.42-12.79,2.92-12.84,2.96l-.18.13Z"/>
  <path class="cls-1" d="M82.33,36.84c-.58.18-1.18-.15-1.36-.72-.18-.58.15-1.18.72-1.36.58-.18,1.18.15,1.36.72.17.58-.15,1.19-.72,1.36Z"/>
  <path class="cls-1" d="M127.71,39.87c.6.02,1.1-.45,1.12-1.05.02-.6-.45-1.1-1.05-1.12s-1.1.45-1.12,1.05c-.02.6.45,1.11,1.05,1.12Z"/>
  <path class="cls-3" d="M104.78,76.91l-.53-.05c1.83-20.46,8.55-33.11,9.88-35.45-5.86.25-17.48,14.7-19.8,17.66l-.41-.32c3.39-4.32,14.88-18.37,20.7-17.85l.43.04-.23.37c-.08.12-8.02,13.1-10.04,35.6Z"/>
  <path class="cls-3" d="M95.03,59.55c-.37.47-1.06.55-1.53.18-.47-.37-.55-1.06-.18-1.53.37-.47,1.06-.55,1.53-.18.47.37.55,1.06.18,1.53Z"/>
  <path class="cls-1" d="M122.23,57.23c-1.35-1.51-5.92-7.1-8.09-15.86l.51-.13c2.14,8.65,6.64,14.16,7.97,15.64l-.39.35Z"/>
  <path class="cls-1" d="M123.18,56.26c.42.43.4,1.12-.03,1.54-.43.42-1.12.4-1.54-.03s-.4-1.12.03-1.54c.44-.42,1.12-.4,1.54.03Z"/>
  <path class="cls-1" d="M114.65,41.78c-.91-9.32,6.4-17.93,6.48-18.02l.4.34c-.07.08-7.24,8.53-6.35,17.63l-.53.05Z"/>
  <path class="cls-1" d="M101.94,77.48l-.52-.06c.03-.26,3.35-26.61,13-35.83l.36.38c-9.51,9.09-12.8,35.25-12.84,35.52Z"/>
  <path class="cls-1" d="M113.8,68.52c-2.37-15.67.6-26.72.63-26.83l.51.14c-.03.11-2.97,11.06-.61,26.61l-.52.08Z"/>
  <path class="cls-1" d="M95.72,53.78l-.35-.39c.52-.47,12.76-11.43,19.48-11.66l.02.53c-6.52.22-19.02,11.41-19.14,11.52Z"/>
  <path class="cls-1" d="M114.82,41.87l-.39-.35c4.3-4.71,8.95-6.75,12.08-7.63,3.41-.95,5.76-.8,5.86-.79l-.04.53c-.09,0-9.46-.58-17.52,8.24Z"/>
  <path class="cls-1" d="M97.27,69.35l-.5-.16c.05-.17,5.61-16.97,18.03-27.69l.34.4c-12.3,10.62-17.82,27.29-17.87,27.45Z"/>
  <path class="cls-3" d="M122.9,53.24c-.31-.2-7.52-4.92-8.29-11.23-1.47-12.23,4.52-20.76,4.58-20.84l.43.31c-.06.08-5.93,8.46-4.48,20.48.73,6.06,7.97,10.8,8.05,10.85l-.28.44Z"/>
  <path class="cls-1" d="M95.1,51.02s-.05,0-.08-.01l.13-.51-.06.26-.04-.26c.14-.05.85-.54,1.59-1.06,3.75-2.62,12.53-8.73,18.14-7.84l-.08.52c-5.39-.87-14.06,5.17-17.76,7.76-1.38.96-1.66,1.15-1.84,1.15Z"/>
  <path class="cls-1" d="M114.5,42.55c-11.56-29.13-22.82-36.73-25.99-38.36l.24-.47c3.22,1.65,14.61,9.33,26.24,38.63l-.49.19Z"/>
  <path class="cls-1" d="M88.2,4.98c-.54-.26-.77-.91-.51-1.45.26-.54.91-.77,1.45-.51.54.26.77.91.51,1.45-.26.54-.91.77-1.45.51Z"/>
  <path class="cls-3" d="M114.85,42.92c-14.31-28.06-43.92-30.85-44.21-30.88l.04-.53c.3.03,30.2,2.84,44.64,31.16l-.47.24Z"/>
  <path class="cls-1" d="M114.65,42.17C86.64,7.35,74.57,9.29,74.46,9.31l-.11-.52c.49-.1,12.42-2.13,40.71,33.04l-.41.33Z"/>
  <path class="cls-1" d="M114.64,42.97l-4.92-26.6.52-.1,4.53,24.5c2.66-6.97,11.4-11.43,11.79-11.62l.24.47c-.1.05-9.74,4.98-11.85,12.28l-.3,1.07Z"/>
  <path class="cls-1" d="M97.73,43.9l-.19-.49c3.16-1.24,11.19-3.88,17.41-1.65l-.18.5c-6.22-2.24-14.61.69-17.04,1.64Z"/>
  <path class="cls-1" d="M98.09,44.65c-.56.22-1.19-.05-1.41-.61-.22-.56.05-1.19.61-1.41.56-.22,1.19.05,1.41.61.22.56-.05,1.19-.61,1.41Z"/>
  <path class="cls-1" d="M104.02,63.05l-.5-.15c1.26-4.31,5.79-18.61,11.02-21.58l.26.46c-5.06,2.86-9.53,17-10.78,21.27Z"/>
  <path class="cls-1" d="M104.84,63.24c-.17.58-.78.9-1.35.73s-.9-.78-.73-1.35c.17-.58.78-.9,1.35-.73.58.17.9.78.73,1.35Z"/>
  <path class="cls-1" d="M115.06,44.35c-2.52-8.22-16.44-18.1-20.65-20.94l.29-.44c4.24,2.86,18.29,12.83,20.86,21.22l-.5.16Z"/>
  <path class="cls-1" d="M93.98,24.14c-.5-.34-.62-1.02-.29-1.51.34-.5,1.02-.62,1.51-.29.5.34.62,1.02.29,1.51-.34.5-1.02.62-1.51.29Z"/>
  <path class="cls-1" d="M114.38,41.97c-7.13-14.93-33.4-20.11-33.66-20.16l.1-.52c.26.05,26.79,5.28,34.04,20.45l-.48.23Z"/>
  <path class="cls-1" d="M100.75,54.03l-.39-.36c2.07-2.24,9.22-9.74,14.15-12.15l.23.47c-4.85,2.38-11.94,9.82-14,12.04Z"/>
  <path class="cls-1" d="M101.4,54.55c-.41.44-1.1.47-1.54.06s-.47-1.1-.06-1.54c.41-.44,1.1-.47,1.54-.06.44.41.47,1.1.06,1.54Z"/>
  <path class="cls-3" d="M92.14,44.96l-.25-.46c.11-.06,11.01-5.81,22.23-3.2l-.12.51c-11.03-2.57-21.75,3.1-21.86,3.15Z"/>
  <path class="cls-1" d="M122.03,49.3c-.29-.2-7.02-4.98-7.66-7.76l.51-.12c.59,2.59,7.38,7.4,7.45,7.45l-.3.43Z"/>
  <path class="cls-1" d="M122.22,46.67c-.17-.04-4.15-.94-7.84-4.91l.39-.36c3.57,3.84,7.53,4.74,7.57,4.75l-.11.51Z"/>
  <path class="cls-1" d="M123.23,44.52s-4.27-2.85-8.59-2.78v-.53c4.48-.11,8.71,2.75,8.89,2.88l-.3.43Z"/>
  <path class="cls-1" d="M122.06,50.32c-.32-.17-7.94-4.21-7.58-8.37l.53.05c-.33,3.81,7.23,7.82,7.3,7.86l-.24.47Z"/>
  <path class="cls-3" d="M114.41,42.96l-.15-.92c-.02-.1-1.59-9.62-6.83-18.88-4.82-8.52-13.84-18.57-29.37-18.05l-.02-.53c15.82-.53,24.96,9.67,29.85,18.33,4.42,7.81,6.25,15.8,6.75,18.27,1.24-2.27,5.97-9.37,17.9-12.9l.15.5c-14.01,4.15-17.89,13.22-17.92,13.32l-.36.86Z"/>
  <path class="cls-3" d="M132.25,27.53c.58-.18,1.18.15,1.36.72.18.58-.15,1.18-.72,1.36-.58.18-1.18-.15-1.36-.72-.17-.58.15-1.18.72-1.36Z"/>
  <path class="cls-2" d="M114.45,41.78c-3.31-7.4-11.7-12.39-24.94-14.84-10.54-1.95-21-1.6-23.95-1.45l-.03-.53c6.85-.35,41.42-1.21,49.4,16.6l-.48.22Z"/>
  <path class="cls-2" d="M65.67,26.32c-.6.03-1.11-.43-1.14-1.03-.03-.6.43-1.11,1.03-1.14.6-.03,1.11.43,1.14,1.03.03.6-.42,1.11-1.03,1.14Z"/>
  <path class="cls-2" d="M114.32,41.69c-14.36-10.45-29.31-4.37-29.46-4.31l-.2-.48c.15-.06,15.37-6.25,29.97,4.37l-.31.42Z"/>
  <path class="cls-2" d="M123.1,55.84c-.05-.04-5.03-4.36-8.65-13.4l.49-.19c3.57,8.92,8.46,13.16,8.5,13.2l-.34.4Z"/>
  <path class="cls-2" d="M110.47,73.81h-.53c.03-6.67.47-28.69,4.62-31.92l.32.42c-4.06,3.17-4.39,26.8-4.42,31.5Z"/>
  <path class="cls-2" d="M111.3,73.76c0,.6-.5,1.08-1.1,1.08-.6,0-1.08-.5-1.08-1.1,0-.6.5-1.08,1.1-1.08.6,0,1.09.5,1.08,1.1Z"/>
  <path class="cls-2" d="M114.35,41.63c-13.74-14.56-25.9-20.56-33.68-23.04-8.42-2.68-13.67-1.91-13.72-1.91l-.08-.52c.21-.03,21.38-2.97,47.87,25.1l-.39.37Z"/>
  <path class="cls-2" d="M117.66,54.78c-.14-.38-3.5-9.31-3.23-12.88.53-6.94,4.65-11.96,5.9-13.33l.39.35c-1.22,1.34-5.25,6.25-5.77,13.02-.26,3.45,3.16,12.56,3.19,12.65l-.49.19Z"/>
  <path class="cls-2" d="M119.72,28.03c.42-.42,1.11-.42,1.54,0,.42.42.42,1.11,0,1.54-.42.42-1.11.42-1.54,0-.42-.42-.42-1.11,0-1.54Z"/>
  <path class="cls-2" d="M106.16,46.98l-.32-.42c.25-.19,6.13-4.67,9.01-5.4l.13.51c-2.78.7-8.76,5.26-8.82,5.31Z"/>
  <path class="cls-2" d="M96.11,64.28l-.46-.26c.07-.13,7.43-13.1,18.7-22.23l.33.41c-11.19,9.06-18.5,21.95-18.57,22.08Z"/>
  <path class="cls-2" d="M114.28,41.54c-4.67-10.93-12.73-25.39-24.55-32.25-7.05-4.09-12.18-3.51-12.23-3.5l-.07-.52c.21-.03,5.31-.62,12.51,3.55,6.61,3.82,16.27,12.56,24.81,32.52l-.48.21Z"/>
  <path class="cls-2" d="M122.87,45.81c-2.68-1.7-7.26-4.26-8.12-3.89l-.21-.48c1.36-.58,7.41,3.17,8.61,3.93l-.28.44Z"/>
  <path class="cls-4" d="M94.43,48.08l-.35-.39c.08-.08,8.49-7.44,20.36-6.23l-.05.52c-11.64-1.17-19.87,6.03-19.95,6.1Z"/>
  <path class="cls-4" d="M99.8,76.04l-.52-.05c1.86-18.72,13.27-32.32,15-34.28-1.69-.96-11.14-5.78-22.75-1.03l-.2-.49c13.03-5.32,23.4,1.17,23.5,1.24l.26.17-.21.23c-.13.14-13.1,14.24-15.08,34.22Z"/>
  <path class="cls-4" d="M114.47,41.19l-.53-.52c-.17-.17-17.49-16.81-43.52-5.59l-.21-.48c13.77-5.94,25.03-4.08,32.04-1.48,6.11,2.27,10.16,5.49,11.53,6.69l-3.39-30.4.52-.06,3.56,31.83Z"/>
  <path class="cls-4" d="M114.54,41.63c-.16-.35-16.69-35.44-40.43-30.84l-.1-.52c24.14-4.68,40.84,30.78,41.01,31.13l-.48.22Z"/>
  <path class="cls-4" d="M74.31,11.62c-.59.11-1.16-.28-1.27-.87-.11-.59.28-1.16.87-1.27.59-.11,1.16.28,1.27.87.11.59-.28,1.16-.87,1.27Z"/>
  <path class="cls-4" d="M115.11,41.67l-.49-.19c3.55-9.14,10.96-12.75,11.03-12.79l.23.48c-.07.03-7.3,3.56-10.77,12.5Z"/>
  <path class="cls-4" d="M114.69,42.2l-.58-1.92c-.34-1.19-8.81-28.88-48.18-21.88l-.09-.52c34.84-6.19,45.78,14.53,48.21,20.64l-.9-28.77.53-.02,1.01,32.46Z"/>
  <path class="cls-4" d="M112.33,9.83c-.02-.6.45-1.1,1.05-1.12.6-.02,1.1.45,1.12,1.05.02.6-.45,1.1-1.05,1.12-.6.02-1.11-.45-1.12-1.05Z"/>
  <path class="cls-4" d="M114.39,41.86c-9.46-15.58-46.4-10.68-46.77-10.62l-.07-.52c.37-.05,37.65-5,47.29,10.87l-.45.27Z"/>
  <path class="cls-4" d="M114.88,41.88l-.33-.41c9.35-7.49,17.18-6.9,17.26-6.89l-.05.53c-.07,0-7.7-.56-16.88,6.78Z"/>
  <path class="cls-4" d="M114.42,41.46c-2.49-8.77-11.68-19.51-25.9-30.23-.34-.26-.56-.42-.65-.5l.34-.4c.08.07.29.23.63.48,14.31,10.8,23.57,21.63,26.09,30.51l-.5.14Z"/>
  <path class="cls-4" d="M115.64,66.37c-.04-.13-4.19-12.79-1.25-24.66l.51.13c-2.9,11.72,1.19,24.24,1.24,24.36l-.5.17Z"/>
  <path class="cls-4" d="M114.21,42.34c-4.04-18.6-10.12-27.91-11.89-30.33l.42-.31c1.78,2.44,7.91,11.83,11.97,30.52l-.51.11Z"/>
  <path class="cls-4" d="M101.68,12.56c-.36-.48-.25-1.16.23-1.52.48-.36,1.17-.25,1.52.23.36.48.25,1.16-.23,1.52-.49.35-1.17.25-1.52-.23Z"/>
</svg>